<mxfile host="app.diagrams.net" agent="Mozilla/5.0 (Windows NT 10.0; Win64; x64) AppleWebKit/537.36 (KHTML, like Gecko) Chrome/135.0.0.0 Safari/537.36 Edg/135.0.0.0" version="26.2.12">
  <diagram name="Страница — 1" id="hFOS5kdCjHOKCW7hOLHT">
    <mxGraphModel dx="1031" dy="932" grid="1" gridSize="10" guides="1" tooltips="1" connect="1" arrows="1" fold="1" page="0" pageScale="1" pageWidth="827" pageHeight="1169" math="0" shadow="0">
      <root>
        <mxCell id="0" />
        <mxCell id="1" parent="0" />
        <mxCell id="jJkDx_sXaSHE9qlr1j0l-11" style="edgeStyle=none;curved=1;rounded=0;orthogonalLoop=1;jettySize=auto;html=1;fontSize=12;startSize=8;endSize=8;" edge="1" parent="1" source="jJkDx_sXaSHE9qlr1j0l-1" target="jJkDx_sXaSHE9qlr1j0l-2">
          <mxGeometry relative="1" as="geometry" />
        </mxCell>
        <mxCell id="jJkDx_sXaSHE9qlr1j0l-1" value="Источники Вредоносного ПО" style="rounded=0;whiteSpace=wrap;html=1;" vertex="1" parent="1">
          <mxGeometry x="-40" y="-40" width="120" height="60" as="geometry" />
        </mxCell>
        <mxCell id="jJkDx_sXaSHE9qlr1j0l-12" style="edgeStyle=none;curved=1;rounded=0;orthogonalLoop=1;jettySize=auto;html=1;fontSize=12;startSize=8;endSize=8;" edge="1" parent="1" source="jJkDx_sXaSHE9qlr1j0l-2" target="jJkDx_sXaSHE9qlr1j0l-4">
          <mxGeometry relative="1" as="geometry" />
        </mxCell>
        <mxCell id="jJkDx_sXaSHE9qlr1j0l-2" value="Посещение зараженного сайта" style="rounded=1;whiteSpace=wrap;html=1;" vertex="1" parent="1">
          <mxGeometry x="-40" y="40" width="120" height="60" as="geometry" />
        </mxCell>
        <mxCell id="jJkDx_sXaSHE9qlr1j0l-19" style="edgeStyle=none;curved=1;rounded=0;orthogonalLoop=1;jettySize=auto;html=1;fontSize=12;startSize=8;endSize=8;" edge="1" parent="1" source="jJkDx_sXaSHE9qlr1j0l-3" target="jJkDx_sXaSHE9qlr1j0l-5">
          <mxGeometry relative="1" as="geometry" />
        </mxCell>
        <mxCell id="jJkDx_sXaSHE9qlr1j0l-3" value="Использование устаревшего антивирусного ПО" style="rounded=1;whiteSpace=wrap;html=1;" vertex="1" parent="1">
          <mxGeometry x="-40" y="120" width="120" height="60" as="geometry" />
        </mxCell>
        <mxCell id="jJkDx_sXaSHE9qlr1j0l-13" style="edgeStyle=none;curved=1;rounded=0;orthogonalLoop=1;jettySize=auto;html=1;fontSize=12;startSize=8;endSize=8;" edge="1" parent="1" source="jJkDx_sXaSHE9qlr1j0l-4" target="jJkDx_sXaSHE9qlr1j0l-8">
          <mxGeometry relative="1" as="geometry" />
        </mxCell>
        <mxCell id="jJkDx_sXaSHE9qlr1j0l-4" value="Веб-браузер с уязвимостями" style="rounded=1;whiteSpace=wrap;html=1;" vertex="1" parent="1">
          <mxGeometry x="100" y="40" width="120" height="60" as="geometry" />
        </mxCell>
        <mxCell id="jJkDx_sXaSHE9qlr1j0l-5" value="Загрузка &quot;Бесплатной&quot; Программы" style="rounded=1;whiteSpace=wrap;html=1;" vertex="1" parent="1">
          <mxGeometry x="100" y="120" width="120" height="60" as="geometry" />
        </mxCell>
        <mxCell id="jJkDx_sXaSHE9qlr1j0l-18" style="edgeStyle=none;curved=1;rounded=0;orthogonalLoop=1;jettySize=auto;html=1;fontSize=12;startSize=8;endSize=8;" edge="1" parent="1" source="jJkDx_sXaSHE9qlr1j0l-6" target="jJkDx_sXaSHE9qlr1j0l-3">
          <mxGeometry relative="1" as="geometry" />
        </mxCell>
        <mxCell id="jJkDx_sXaSHE9qlr1j0l-6" value="Открытие не запрошенного эл. письма" style="rounded=1;whiteSpace=wrap;html=1;" vertex="1" parent="1">
          <mxGeometry x="-40" y="200" width="120" height="60" as="geometry" />
        </mxCell>
        <mxCell id="jJkDx_sXaSHE9qlr1j0l-17" style="edgeStyle=none;curved=1;rounded=0;orthogonalLoop=1;jettySize=auto;html=1;fontSize=12;startSize=8;endSize=8;" edge="1" parent="1" source="jJkDx_sXaSHE9qlr1j0l-7" target="jJkDx_sXaSHE9qlr1j0l-6">
          <mxGeometry relative="1" as="geometry" />
        </mxCell>
        <mxCell id="jJkDx_sXaSHE9qlr1j0l-7" value="Обмен файлами через файлообменники" style="rounded=1;whiteSpace=wrap;html=1;" vertex="1" parent="1">
          <mxGeometry x="100" y="200" width="120" height="60" as="geometry" />
        </mxCell>
        <mxCell id="jJkDx_sXaSHE9qlr1j0l-14" style="edgeStyle=none;curved=1;rounded=0;orthogonalLoop=1;jettySize=auto;html=1;fontSize=12;startSize=8;endSize=8;" edge="1" parent="1" source="jJkDx_sXaSHE9qlr1j0l-8" target="jJkDx_sXaSHE9qlr1j0l-9">
          <mxGeometry relative="1" as="geometry" />
        </mxCell>
        <mxCell id="jJkDx_sXaSHE9qlr1j0l-8" value="Заражение ПК через другой хост" style="rounded=1;whiteSpace=wrap;html=1;" vertex="1" parent="1">
          <mxGeometry x="240" y="40" width="120" height="60" as="geometry" />
        </mxCell>
        <mxCell id="jJkDx_sXaSHE9qlr1j0l-15" style="edgeStyle=none;curved=1;rounded=0;orthogonalLoop=1;jettySize=auto;html=1;fontSize=12;startSize=8;endSize=8;" edge="1" parent="1" source="jJkDx_sXaSHE9qlr1j0l-9" target="jJkDx_sXaSHE9qlr1j0l-10">
          <mxGeometry relative="1" as="geometry" />
        </mxCell>
        <mxCell id="jJkDx_sXaSHE9qlr1j0l-9" value="Открытие приложений, полученных в мессежерах, соц. сетях, т. д." style="rounded=1;whiteSpace=wrap;html=1;" vertex="1" parent="1">
          <mxGeometry x="240" y="120" width="120" height="60" as="geometry" />
        </mxCell>
        <mxCell id="jJkDx_sXaSHE9qlr1j0l-16" style="edgeStyle=none;curved=1;rounded=0;orthogonalLoop=1;jettySize=auto;html=1;fontSize=12;startSize=8;endSize=8;" edge="1" parent="1" source="jJkDx_sXaSHE9qlr1j0l-10" target="jJkDx_sXaSHE9qlr1j0l-7">
          <mxGeometry relative="1" as="geometry" />
        </mxCell>
        <mxCell id="jJkDx_sXaSHE9qlr1j0l-10" value="Подключение USB-носителя неизвестного происхождения" style="rounded=1;whiteSpace=wrap;html=1;" vertex="1" parent="1">
          <mxGeometry x="240" y="200" width="120" height="60" as="geometry" />
        </mxCell>
        <mxCell id="jJkDx_sXaSHE9qlr1j0l-22" style="edgeStyle=none;curved=1;rounded=0;orthogonalLoop=1;jettySize=auto;html=1;fontSize=12;startSize=8;endSize=8;" edge="1" parent="1" source="jJkDx_sXaSHE9qlr1j0l-20" target="jJkDx_sXaSHE9qlr1j0l-21">
          <mxGeometry relative="1" as="geometry" />
        </mxCell>
        <mxCell id="jJkDx_sXaSHE9qlr1j0l-20" value="Типы ВПО" style="rounded=0;whiteSpace=wrap;html=1;" vertex="1" parent="1">
          <mxGeometry x="-40" y="320" width="120" height="60" as="geometry" />
        </mxCell>
        <mxCell id="jJkDx_sXaSHE9qlr1j0l-24" style="edgeStyle=none;curved=1;rounded=0;orthogonalLoop=1;jettySize=auto;html=1;fontSize=12;startSize=8;endSize=8;" edge="1" parent="1" source="jJkDx_sXaSHE9qlr1j0l-21" target="jJkDx_sXaSHE9qlr1j0l-23">
          <mxGeometry relative="1" as="geometry" />
        </mxCell>
        <mxCell id="jJkDx_sXaSHE9qlr1j0l-26" style="edgeStyle=none;curved=1;rounded=0;orthogonalLoop=1;jettySize=auto;html=1;fontSize=12;startSize=8;endSize=8;" edge="1" parent="1" source="jJkDx_sXaSHE9qlr1j0l-21" target="jJkDx_sXaSHE9qlr1j0l-25">
          <mxGeometry relative="1" as="geometry" />
        </mxCell>
        <mxCell id="jJkDx_sXaSHE9qlr1j0l-21" value="Рекламное ПО" style="rounded=1;whiteSpace=wrap;html=1;" vertex="1" parent="1">
          <mxGeometry x="110" y="320" width="120" height="60" as="geometry" />
        </mxCell>
        <mxCell id="jJkDx_sXaSHE9qlr1j0l-23" value="Как правило, внедряется на ПК при скачивании программ из сети.&lt;div&gt;Может открывать в браузерах всплывающие окна с нежелательной рекламой, создавать новые панели инструментов, перенаправлять пользователя на сторонние сайты.&lt;/div&gt;" style="whiteSpace=wrap;html=1;aspect=fixed;" vertex="1" parent="1">
          <mxGeometry x="85" y="400" width="170" height="170" as="geometry" />
        </mxCell>
        <mxCell id="jJkDx_sXaSHE9qlr1j0l-28" style="edgeStyle=none;curved=1;rounded=0;orthogonalLoop=1;jettySize=auto;html=1;fontSize=12;startSize=8;endSize=8;" edge="1" parent="1" source="jJkDx_sXaSHE9qlr1j0l-25" target="jJkDx_sXaSHE9qlr1j0l-27">
          <mxGeometry relative="1" as="geometry" />
        </mxCell>
        <mxCell id="jJkDx_sXaSHE9qlr1j0l-31" style="edgeStyle=none;curved=1;rounded=0;orthogonalLoop=1;jettySize=auto;html=1;fontSize=12;startSize=8;endSize=8;" edge="1" parent="1" source="jJkDx_sXaSHE9qlr1j0l-25" target="jJkDx_sXaSHE9qlr1j0l-29">
          <mxGeometry relative="1" as="geometry" />
        </mxCell>
        <mxCell id="jJkDx_sXaSHE9qlr1j0l-25" value="Программы-вымогатели" style="rounded=1;whiteSpace=wrap;html=1;" vertex="1" parent="1">
          <mxGeometry x="300" y="320" width="120" height="60" as="geometry" />
        </mxCell>
        <mxCell id="jJkDx_sXaSHE9qlr1j0l-27" value="Как правило, блокируют доступ к файлам ПК, шифруя их, затем выводят сообщение требования выкупа за ключ расшифровки.&lt;div&gt;Если у пользователя нет свежей резервной копии, то ему приходится идти на уступки злоумышленников, чтобы получить доступ обратно.&lt;/div&gt;" style="whiteSpace=wrap;html=1;aspect=fixed;" vertex="1" parent="1">
          <mxGeometry x="275" y="400" width="170" height="170" as="geometry" />
        </mxCell>
        <mxCell id="jJkDx_sXaSHE9qlr1j0l-32" style="edgeStyle=none;curved=1;rounded=0;orthogonalLoop=1;jettySize=auto;html=1;fontSize=12;startSize=8;endSize=8;" edge="1" parent="1" source="jJkDx_sXaSHE9qlr1j0l-29" target="jJkDx_sXaSHE9qlr1j0l-30">
          <mxGeometry relative="1" as="geometry" />
        </mxCell>
        <mxCell id="jJkDx_sXaSHE9qlr1j0l-38" style="edgeStyle=none;curved=1;rounded=0;orthogonalLoop=1;jettySize=auto;html=1;fontSize=12;startSize=8;endSize=8;" edge="1" parent="1" source="jJkDx_sXaSHE9qlr1j0l-29" target="jJkDx_sXaSHE9qlr1j0l-36">
          <mxGeometry relative="1" as="geometry" />
        </mxCell>
        <mxCell id="jJkDx_sXaSHE9qlr1j0l-29" value="Руткиты" style="rounded=1;whiteSpace=wrap;html=1;" vertex="1" parent="1">
          <mxGeometry x="505" y="320" width="120" height="60" as="geometry" />
        </mxCell>
        <mxCell id="jJkDx_sXaSHE9qlr1j0l-30" value="Используются киберпреступниками, чтобы получить права администратора и управлять атакованным ПК.&lt;div&gt;Их сложно обнаружить, т.к. они вмешиваются в процесс работы системы, системные файлы, антивирусы, файлы операционной системы, чтобы скрыть свое присутствие.&lt;/div&gt;" style="whiteSpace=wrap;html=1;aspect=fixed;" vertex="1" parent="1">
          <mxGeometry x="480" y="400" width="170" height="170" as="geometry" />
        </mxCell>
        <mxCell id="jJkDx_sXaSHE9qlr1j0l-35" style="edgeStyle=none;curved=1;rounded=0;orthogonalLoop=1;jettySize=auto;html=1;fontSize=12;startSize=8;endSize=8;" edge="1" parent="1" source="jJkDx_sXaSHE9qlr1j0l-36" target="jJkDx_sXaSHE9qlr1j0l-37">
          <mxGeometry relative="1" as="geometry" />
        </mxCell>
        <mxCell id="jJkDx_sXaSHE9qlr1j0l-42" style="edgeStyle=none;curved=1;rounded=0;orthogonalLoop=1;jettySize=auto;html=1;fontSize=12;startSize=8;endSize=8;" edge="1" parent="1" source="jJkDx_sXaSHE9qlr1j0l-36" target="jJkDx_sXaSHE9qlr1j0l-40">
          <mxGeometry relative="1" as="geometry" />
        </mxCell>
        <mxCell id="jJkDx_sXaSHE9qlr1j0l-36" value="Шпионское ПО" style="rounded=1;whiteSpace=wrap;html=1;" vertex="1" parent="1">
          <mxGeometry x="725" y="320" width="120" height="60" as="geometry" />
        </mxCell>
        <mxCell id="jJkDx_sXaSHE9qlr1j0l-37" value="По принципу действия похожи на рекламное ПО, однако используются для сбора данных(информации) о пользователе и ее отправки злоумышленникам.&lt;div&gt;Запись ведется с посещением сайтов, нажатием клавиш на всех устройствах, что позволяет собрать данные персональной и финансовой конфиденциальности личности&amp;nbsp;&lt;/div&gt;" style="whiteSpace=wrap;html=1;aspect=fixed;" vertex="1" parent="1">
          <mxGeometry x="700" y="400" width="170" height="170" as="geometry" />
        </mxCell>
        <mxCell id="jJkDx_sXaSHE9qlr1j0l-39" style="edgeStyle=none;curved=1;rounded=0;orthogonalLoop=1;jettySize=auto;html=1;fontSize=12;startSize=8;endSize=8;" edge="1" parent="1" source="jJkDx_sXaSHE9qlr1j0l-40" target="jJkDx_sXaSHE9qlr1j0l-41">
          <mxGeometry relative="1" as="geometry" />
        </mxCell>
        <mxCell id="jJkDx_sXaSHE9qlr1j0l-46" style="edgeStyle=none;curved=1;rounded=0;orthogonalLoop=1;jettySize=auto;html=1;fontSize=12;startSize=8;endSize=8;" edge="1" parent="1" source="jJkDx_sXaSHE9qlr1j0l-40" target="jJkDx_sXaSHE9qlr1j0l-44">
          <mxGeometry relative="1" as="geometry" />
        </mxCell>
        <mxCell id="jJkDx_sXaSHE9qlr1j0l-40" value="Черви" style="rounded=1;whiteSpace=wrap;html=1;" vertex="1" parent="1">
          <mxGeometry x="925" y="320" width="120" height="60" as="geometry" />
        </mxCell>
        <mxCell id="jJkDx_sXaSHE9qlr1j0l-41" value="Самовоспроизводящаяся программа, которая распространяется автоматически, без участия пользователя, используя уязвимости легального ПО.&lt;div&gt;Червь ищет в сети других жертв с аналогичным уязвимым местом.&amp;nbsp;&lt;/div&gt;&lt;div&gt;Цель червя - замедлить либо нарушить работу сети.&lt;/div&gt;" style="whiteSpace=wrap;html=1;aspect=fixed;" vertex="1" parent="1">
          <mxGeometry x="900" y="400" width="170" height="170" as="geometry" />
        </mxCell>
        <mxCell id="jJkDx_sXaSHE9qlr1j0l-43" style="edgeStyle=none;curved=1;rounded=0;orthogonalLoop=1;jettySize=auto;html=1;fontSize=12;startSize=8;endSize=8;" edge="1" parent="1" source="jJkDx_sXaSHE9qlr1j0l-44" target="jJkDx_sXaSHE9qlr1j0l-45">
          <mxGeometry relative="1" as="geometry" />
        </mxCell>
        <mxCell id="jJkDx_sXaSHE9qlr1j0l-50" style="edgeStyle=none;curved=1;rounded=0;orthogonalLoop=1;jettySize=auto;html=1;fontSize=12;startSize=8;endSize=8;" edge="1" parent="1" source="jJkDx_sXaSHE9qlr1j0l-44" target="jJkDx_sXaSHE9qlr1j0l-48">
          <mxGeometry relative="1" as="geometry" />
        </mxCell>
        <mxCell id="jJkDx_sXaSHE9qlr1j0l-44" value="Фишинг" style="rounded=1;whiteSpace=wrap;html=1;" vertex="1" parent="1">
          <mxGeometry x="1135" y="320" width="120" height="60" as="geometry" />
        </mxCell>
        <mxCell id="jJkDx_sXaSHE9qlr1j0l-45" value="ВПО пытается обманом пользователя убедить его раскрыть вашу конфиденциальную информацию." style="whiteSpace=wrap;html=1;aspect=fixed;" vertex="1" parent="1">
          <mxGeometry x="1110" y="400" width="170" height="170" as="geometry" />
        </mxCell>
        <mxCell id="jJkDx_sXaSHE9qlr1j0l-47" style="edgeStyle=none;curved=1;rounded=0;orthogonalLoop=1;jettySize=auto;html=1;fontSize=12;startSize=8;endSize=8;" edge="1" parent="1" source="jJkDx_sXaSHE9qlr1j0l-48" target="jJkDx_sXaSHE9qlr1j0l-49">
          <mxGeometry relative="1" as="geometry" />
        </mxCell>
        <mxCell id="jJkDx_sXaSHE9qlr1j0l-54" style="edgeStyle=none;curved=1;rounded=0;orthogonalLoop=1;jettySize=auto;html=1;fontSize=12;startSize=8;endSize=8;" edge="1" parent="1" source="jJkDx_sXaSHE9qlr1j0l-48" target="jJkDx_sXaSHE9qlr1j0l-52">
          <mxGeometry relative="1" as="geometry" />
        </mxCell>
        <mxCell id="jJkDx_sXaSHE9qlr1j0l-48" value="Троянский конь" style="rounded=1;whiteSpace=wrap;html=1;" vertex="1" parent="1">
          <mxGeometry x="1355" y="320" width="120" height="60" as="geometry" />
        </mxCell>
        <mxCell id="jJkDx_sXaSHE9qlr1j0l-49" value="ВПО самостоятельно не реплицируется. Часто содержит вредоносный код, изначально замаскированный под легальное ПО или объект, файл. Атакует устройство изнутри." style="whiteSpace=wrap;html=1;aspect=fixed;" vertex="1" parent="1">
          <mxGeometry x="1330" y="400" width="170" height="170" as="geometry" />
        </mxCell>
        <mxCell id="jJkDx_sXaSHE9qlr1j0l-51" style="edgeStyle=none;curved=1;rounded=0;orthogonalLoop=1;jettySize=auto;html=1;fontSize=12;startSize=8;endSize=8;" edge="1" parent="1" source="jJkDx_sXaSHE9qlr1j0l-52" target="jJkDx_sXaSHE9qlr1j0l-53">
          <mxGeometry relative="1" as="geometry" />
        </mxCell>
        <mxCell id="jJkDx_sXaSHE9qlr1j0l-52" value="Лжеантивирусы" style="rounded=1;whiteSpace=wrap;html=1;" vertex="1" parent="1">
          <mxGeometry x="1575" y="320" width="120" height="60" as="geometry" />
        </mxCell>
        <mxCell id="jJkDx_sXaSHE9qlr1j0l-53" value="ВПО или мошенническая программа, использует методы социальной инженерии, чтобы вызвать у пользователя чувство тревоги и опасности. Обычно оно рассчитано на обман доверчивых людей." style="whiteSpace=wrap;html=1;aspect=fixed;" vertex="1" parent="1">
          <mxGeometry x="1550" y="400" width="170" height="170" as="geometry" />
        </mxCell>
        <mxCell id="jJkDx_sXaSHE9qlr1j0l-55" value="Процедуры для удаления ВПО" style="rounded=0;whiteSpace=wrap;html=1;" vertex="1" parent="1">
          <mxGeometry x="-40" y="600" width="120" height="60" as="geometry" />
        </mxCell>
        <mxCell id="jJkDx_sXaSHE9qlr1j0l-63" style="edgeStyle=none;curved=1;rounded=0;orthogonalLoop=1;jettySize=auto;html=1;entryX=0;entryY=0.5;entryDx=0;entryDy=0;fontSize=12;startSize=8;endSize=8;" edge="1" parent="1" source="jJkDx_sXaSHE9qlr1j0l-56" target="jJkDx_sXaSHE9qlr1j0l-57">
          <mxGeometry relative="1" as="geometry">
            <Array as="points">
              <mxPoint x="180" y="640" />
            </Array>
          </mxGeometry>
        </mxCell>
        <mxCell id="jJkDx_sXaSHE9qlr1j0l-56" value="Выявить и изучить влияние ВПО на ваш ПК" style="rounded=1;whiteSpace=wrap;html=1;" vertex="1" parent="1">
          <mxGeometry x="120" y="680" width="120" height="60" as="geometry" />
        </mxCell>
        <mxCell id="jJkDx_sXaSHE9qlr1j0l-65" style="edgeStyle=none;curved=1;rounded=0;orthogonalLoop=1;jettySize=auto;html=1;entryX=0;entryY=0.5;entryDx=0;entryDy=0;fontSize=12;startSize=8;endSize=8;" edge="1" parent="1" source="jJkDx_sXaSHE9qlr1j0l-57" target="jJkDx_sXaSHE9qlr1j0l-58">
          <mxGeometry relative="1" as="geometry">
            <Array as="points">
              <mxPoint x="290" y="730" />
            </Array>
          </mxGeometry>
        </mxCell>
        <mxCell id="jJkDx_sXaSHE9qlr1j0l-57" value="Отправить зараженные файлы в карантин" style="rounded=1;whiteSpace=wrap;html=1;" vertex="1" parent="1">
          <mxGeometry x="240" y="620" width="120" height="60" as="geometry" />
        </mxCell>
        <mxCell id="jJkDx_sXaSHE9qlr1j0l-66" style="edgeStyle=none;curved=1;rounded=0;orthogonalLoop=1;jettySize=auto;html=1;entryX=0;entryY=0.5;entryDx=0;entryDy=0;fontSize=12;startSize=8;endSize=8;" edge="1" parent="1" source="jJkDx_sXaSHE9qlr1j0l-58" target="jJkDx_sXaSHE9qlr1j0l-59">
          <mxGeometry relative="1" as="geometry">
            <Array as="points">
              <mxPoint x="430" y="630" />
            </Array>
          </mxGeometry>
        </mxCell>
        <mxCell id="jJkDx_sXaSHE9qlr1j0l-58" value="Отключить восстановление системы" style="rounded=1;whiteSpace=wrap;html=1;" vertex="1" parent="1">
          <mxGeometry x="360" y="680" width="120" height="60" as="geometry" />
        </mxCell>
        <mxCell id="jJkDx_sXaSHE9qlr1j0l-67" style="edgeStyle=none;curved=1;rounded=0;orthogonalLoop=1;jettySize=auto;html=1;entryX=0;entryY=0.5;entryDx=0;entryDy=0;fontSize=12;startSize=8;endSize=8;" edge="1" parent="1" source="jJkDx_sXaSHE9qlr1j0l-59" target="jJkDx_sXaSHE9qlr1j0l-60">
          <mxGeometry relative="1" as="geometry">
            <Array as="points">
              <mxPoint x="540" y="730" />
            </Array>
          </mxGeometry>
        </mxCell>
        <mxCell id="jJkDx_sXaSHE9qlr1j0l-59" value="Восстановить/удалить инфицированные файлы" style="rounded=1;whiteSpace=wrap;html=1;" vertex="1" parent="1">
          <mxGeometry x="480" y="620" width="120" height="60" as="geometry" />
        </mxCell>
        <mxCell id="jJkDx_sXaSHE9qlr1j0l-68" style="edgeStyle=none;curved=1;rounded=0;orthogonalLoop=1;jettySize=auto;html=1;entryX=0;entryY=0.5;entryDx=0;entryDy=0;fontSize=12;startSize=8;endSize=8;" edge="1" parent="1" source="jJkDx_sXaSHE9qlr1j0l-60" target="jJkDx_sXaSHE9qlr1j0l-61">
          <mxGeometry relative="1" as="geometry">
            <Array as="points">
              <mxPoint x="650" y="640" />
            </Array>
          </mxGeometry>
        </mxCell>
        <mxCell id="jJkDx_sXaSHE9qlr1j0l-60" value="Запланировать сканирование системы" style="rounded=1;whiteSpace=wrap;html=1;" vertex="1" parent="1">
          <mxGeometry x="600" y="680" width="120" height="60" as="geometry" />
        </mxCell>
        <mxCell id="jJkDx_sXaSHE9qlr1j0l-61" value="Вкл восстановление системы" style="rounded=1;whiteSpace=wrap;html=1;" vertex="1" parent="1">
          <mxGeometry x="720" y="620" width="120" height="60" as="geometry" />
        </mxCell>
        <mxCell id="jJkDx_sXaSHE9qlr1j0l-62" style="edgeStyle=none;curved=1;rounded=0;orthogonalLoop=1;jettySize=auto;html=1;entryX=0.019;entryY=0.592;entryDx=0;entryDy=0;entryPerimeter=0;fontSize=12;startSize=8;endSize=8;" edge="1" parent="1" source="jJkDx_sXaSHE9qlr1j0l-55" target="jJkDx_sXaSHE9qlr1j0l-56">
          <mxGeometry relative="1" as="geometry">
            <Array as="points">
              <mxPoint x="-10" y="730" />
            </Array>
          </mxGeometry>
        </mxCell>
        <mxCell id="jJkDx_sXaSHE9qlr1j0l-75" style="edgeStyle=none;curved=1;rounded=0;orthogonalLoop=1;jettySize=auto;html=1;entryX=0.5;entryY=0;entryDx=0;entryDy=0;fontSize=12;startSize=8;endSize=8;" edge="1" parent="1" source="jJkDx_sXaSHE9qlr1j0l-69" target="jJkDx_sXaSHE9qlr1j0l-70">
          <mxGeometry relative="1" as="geometry">
            <Array as="points">
              <mxPoint x="270" y="750" />
            </Array>
          </mxGeometry>
        </mxCell>
        <mxCell id="jJkDx_sXaSHE9qlr1j0l-69" value="Шаги обновления файла сигнатур для программы защиты от ВПО" style="rounded=0;whiteSpace=wrap;html=1;" vertex="1" parent="1">
          <mxGeometry x="-40" y="760" width="120" height="60" as="geometry" />
        </mxCell>
        <mxCell id="jJkDx_sXaSHE9qlr1j0l-76" style="edgeStyle=none;curved=1;rounded=0;orthogonalLoop=1;jettySize=auto;html=1;fontSize=12;startSize=8;endSize=8;" edge="1" parent="1" source="jJkDx_sXaSHE9qlr1j0l-70" target="jJkDx_sXaSHE9qlr1j0l-71">
          <mxGeometry relative="1" as="geometry" />
        </mxCell>
        <mxCell id="jJkDx_sXaSHE9qlr1j0l-70" value="Шаг 1. Создать точку восстановления Windows на случай, если скачиваемый файл окажется поврежден. Точка восстановления позволит вернуться к прежнему состоянию." style="rounded=0;whiteSpace=wrap;html=1;" vertex="1" parent="1">
          <mxGeometry x="80" y="820" width="500" height="60" as="geometry" />
        </mxCell>
        <mxCell id="jJkDx_sXaSHE9qlr1j0l-77" style="edgeStyle=none;curved=1;rounded=0;orthogonalLoop=1;jettySize=auto;html=1;fontSize=12;startSize=8;endSize=8;" edge="1" parent="1" source="jJkDx_sXaSHE9qlr1j0l-71" target="jJkDx_sXaSHE9qlr1j0l-72">
          <mxGeometry relative="1" as="geometry" />
        </mxCell>
        <mxCell id="jJkDx_sXaSHE9qlr1j0l-71" value="Шаг 2. Откройте программу защиты от ВПО, настройке ее на авто обновление файла сигнатур, подрузите его вручную с официального сайта." style="rounded=0;whiteSpace=wrap;html=1;" vertex="1" parent="1">
          <mxGeometry x="80" y="900" width="500" height="60" as="geometry" />
        </mxCell>
        <mxCell id="jJkDx_sXaSHE9qlr1j0l-79" style="edgeStyle=none;curved=1;rounded=0;orthogonalLoop=1;jettySize=auto;html=1;fontSize=12;startSize=8;endSize=8;" edge="1" parent="1" source="jJkDx_sXaSHE9qlr1j0l-72" target="jJkDx_sXaSHE9qlr1j0l-73">
          <mxGeometry relative="1" as="geometry" />
        </mxCell>
        <mxCell id="jJkDx_sXaSHE9qlr1j0l-72" value="Шаг 3. Обновите систему" style="rounded=0;whiteSpace=wrap;html=1;" vertex="1" parent="1">
          <mxGeometry x="80" y="980" width="500" height="60" as="geometry" />
        </mxCell>
        <mxCell id="jJkDx_sXaSHE9qlr1j0l-80" style="edgeStyle=none;curved=1;rounded=0;orthogonalLoop=1;jettySize=auto;html=1;fontSize=12;startSize=8;endSize=8;" edge="1" parent="1" source="jJkDx_sXaSHE9qlr1j0l-73" target="jJkDx_sXaSHE9qlr1j0l-74">
          <mxGeometry relative="1" as="geometry" />
        </mxCell>
        <mxCell id="jJkDx_sXaSHE9qlr1j0l-73" value="Шаг 4. После обновления программы запустите сканирование снова, проверьте логи работы сканирования о вирусах и других проблемах в системе." style="rounded=0;whiteSpace=wrap;html=1;" vertex="1" parent="1">
          <mxGeometry x="80" y="1060" width="500" height="60" as="geometry" />
        </mxCell>
        <mxCell id="jJkDx_sXaSHE9qlr1j0l-74" value="Шаг 5. Вкл в программе защиты функцию заданной частоты обновления и сканирования пк, например по воскресеньям в незанятые вами часы." style="rounded=0;whiteSpace=wrap;html=1;" vertex="1" parent="1">
          <mxGeometry x="80" y="1140" width="500" height="60" as="geometry" />
        </mxCell>
        <mxCell id="jJkDx_sXaSHE9qlr1j0l-89" style="edgeStyle=none;curved=1;rounded=0;orthogonalLoop=1;jettySize=auto;html=1;fontSize=12;startSize=8;endSize=8;" edge="1" parent="1" source="jJkDx_sXaSHE9qlr1j0l-81" target="jJkDx_sXaSHE9qlr1j0l-84">
          <mxGeometry relative="1" as="geometry" />
        </mxCell>
        <mxCell id="jJkDx_sXaSHE9qlr1j0l-91" style="edgeStyle=none;curved=1;rounded=0;orthogonalLoop=1;jettySize=auto;html=1;fontSize=12;startSize=8;endSize=8;" edge="1" parent="1" source="jJkDx_sXaSHE9qlr1j0l-81" target="jJkDx_sXaSHE9qlr1j0l-87">
          <mxGeometry relative="1" as="geometry" />
        </mxCell>
        <mxCell id="jJkDx_sXaSHE9qlr1j0l-81" value="Представители антивирусов" style="rounded=0;whiteSpace=wrap;html=1;" vertex="1" parent="1">
          <mxGeometry x="-40" y="1240" width="120" height="60" as="geometry" />
        </mxCell>
        <mxCell id="jJkDx_sXaSHE9qlr1j0l-84" value="Kaspersky Total Security - Защита персональных компьютеров, WIFI-сетей. Антивирус скрывает рекламные баннеры, потенциальные угрозы с опасных объявлений мошенников." style="shape=parallelogram;perimeter=parallelogramPerimeter;whiteSpace=wrap;html=1;fixedSize=1;" vertex="1" parent="1">
          <mxGeometry x="120" y="1240" width="270" height="100" as="geometry" />
        </mxCell>
        <mxCell id="jJkDx_sXaSHE9qlr1j0l-85" value="Dr. Web. Securety Space -&amp;nbsp;&lt;div&gt;Специализируется на удалении&amp;nbsp;&lt;/div&gt;&lt;div&gt;&lt;span style=&quot;color: rgba(0, 0, 0, 0); font-family: monospace; font-size: 0px; text-align: start; text-wrap-mode: nowrap; background-color: transparent;&quot;&gt;%3CmxGraphModel%3E%3Croot%3E%3CmxCell%20id%3D%220%22%2F%3E%3CmxCell%20id%3D%221%22%20parent%3D%220%22%2F%3E%3CmxCell%20id%3D%222%22%20value%3D%22Kaspersky%20Total%20Security%20-%20%D0%97%D0%B0%D1%89%D0%B8%D1%82%D0%B0%20%D0%BF%D0%B5%D1%80%D1%81%D0%BE%D0%BD%D0%B0%D0%BB%D1%8C%D0%BD%D1%8B%D1%85%20%D0%BA%D0%BE%D0%BC%D0%BF%D1%8C%D1%8E%D1%82%D0%B5%D1%80%D0%BE%D0%B2%2C%20WIFI-%D1%81%D0%B5%D1%82%D0%B5%D0%B9.%20%D0%90%D0%BD%D1%82%D0%B8%D0%B2%D0%B8%D1%80%D1%83%D1%81%20%D1%81%D0%BA%D1%80%D1%8B%D0%B2%D0%B0%D0%B5%D1%82%20%D1%80%D0%B5%D0%BA%D0%BB%D0%B0%D0%BC%D0%BD%D1%8B%D0%B5%20%D0%B1%D0%B0%D0%BD%D0%BD%D0%B5%D1%80%D1%8B%2C%20%D0%BF%D0%BE%D1%82%D0%B5%D0%BD%D1%86%D0%B8%D0%B0%D0%BB%D1%8C%D0%BD%D1%8B%D0%B5%20%D1%83%D0%B3%D1%80%D0%BE%D0%B7%D1%8B%20%D1%81%20%D0%BE%D0%BF%D0%B0%D1%81%D0%BD%D1%8B%D1%85%20%D0%BE%D0%B1%D1%8A%D1%8F%D0%B2%D0%BB%D0%B5%D0%BD%D0%B8%D0%B9%20%D0%BC%D0%BE%D1%88%D0%B5%D0%BD%D0%BD%D0%B8%D0%BA%D0%BE%D0%B2.%22%20style%3D%22shape%3Dparallelogram%3Bperimeter%3DparallelogramPerimeter%3BwhiteSpace%3Dwrap%3Bhtml%3D1%3BfixedSize%3D1%3B%22%20vertex%3D%221%22%20parent%3D%221%22%3E%3CmxGeometry%20x%3D%22120%22%20y%3D%221240%22%20width%3D%22270%22%20height%3D%22100%22%20as%3D%22geometry%22%2F%3E%3C%2FmxCell%3E%3C%2Froot%3E%3C%2FmxGraphModel%3E&lt;/span&gt;вредоносных программ. У ПО есть мощные возможности для сканирования, но это практически не влияет на работу ПК и смартфонов.&lt;/div&gt;" style="shape=parallelogram;perimeter=parallelogramPerimeter;whiteSpace=wrap;html=1;fixedSize=1;" vertex="1" parent="1">
          <mxGeometry x="100" y="1340" width="270" height="100" as="geometry" />
        </mxCell>
        <mxCell id="jJkDx_sXaSHE9qlr1j0l-86" value="360 Total Security - Полностью защищает от вирусов, троянских программ и других угроз. В этом ПО 5 движков безопасности, поэтому&lt;div&gt;при сканировании файлов быстро находятся и удаляются любые ВПО.&lt;/div&gt;" style="shape=parallelogram;perimeter=parallelogramPerimeter;whiteSpace=wrap;html=1;fixedSize=1;" vertex="1" parent="1">
          <mxGeometry x="80" y="1440" width="270" height="100" as="geometry" />
        </mxCell>
        <mxCell id="jJkDx_sXaSHE9qlr1j0l-87" value="Nano Антивирус Pro - Настраиваемая защита от всех угроз и высокая скорость сканирования. Защита устройства от банковских троянских программ, блокировщиков экрана, шифровальщиков, рекламных программ, шпионов." style="shape=parallelogram;perimeter=parallelogramPerimeter;whiteSpace=wrap;html=1;fixedSize=1;" vertex="1" parent="1">
          <mxGeometry x="-160" y="1340" width="270" height="100" as="geometry" />
        </mxCell>
        <mxCell id="jJkDx_sXaSHE9qlr1j0l-88" value="Eset Antivirus - Известен своей легкостью, работает на старых устройствах, практически не потребляет ресурсы ПК. Защита на высшем уровне, особенно в плане вредоносных сайтов" style="shape=parallelogram;perimeter=parallelogramPerimeter;whiteSpace=wrap;html=1;fixedSize=1;" vertex="1" parent="1">
          <mxGeometry x="-180" y="1440" width="270" height="100" as="geometry" />
        </mxCell>
      </root>
    </mxGraphModel>
  </diagram>
</mxfile>
